<?xml version="1.0" standalone="no"?>
<!DOCTYPE svg PUBLIC "-//W3C//DTD SVG 20010904//EN"
 "http://www.w3.org/TR/2001/REC-SVG-20010904/DTD/svg10.dtd">
<svg version="1.0" xmlns="http://www.w3.org/2000/svg"
 width="1536.000000pt" height="1536.000000pt" viewBox="0 0 1536.000000 1536.000000"
 preserveAspectRatio="xMidYMid meet">
<metadata>
Created by potrace 1.14, written by Peter Selinger 2001-2017
</metadata>
<g transform="translate(0.000000,1536.000000) scale(0.100000,-0.100000)"
fill="#000000" stroke="none">
<path d="M2287 9090 c-99 -51 -334 -173 -462 -240 -60 -31 -181 -94 -268 -140
l-159 -82 -100 52 c-55 28 -117 61 -139 73 l-40 21 -102 -52 c-56 -29 -156
-81 -222 -115 -66 -35 -214 -112 -330 -171 -116 -60 -214 -112 -218 -116 -12
-10 2 -19 218 -131 110 -56 254 -131 320 -166 66 -34 145 -75 175 -90 l55 -29
5 -449 c4 -348 8 -456 18 -476 16 -31 60 -57 287 -174 214 -110 392 -203 520
-270 55 -29 186 -96 290 -150 105 -54 196 -102 203 -108 24 -19 100 -9 154 21
29 16 134 71 233 122 99 51 221 114 270 140 50 26 127 67 173 90 l83 44 107
-56 107 -55 75 40 c89 47 346 181 520 271 69 35 162 84 207 107 l83 43 -70 37
c-38 20 -77 42 -85 49 -8 7 -15 10 -15 6 0 -3 -15 3 -32 13 -18 11 -95 51
-171 91 -76 39 -153 79 -170 89 l-32 18 -1 521 0 522 -30 36 c-20 24 -70 57
-154 101 -69 35 -213 110 -320 165 -107 56 -229 119 -270 141 -41 22 -149 78
-240 124 -91 47 -202 105 -248 130 -100 53 -129 54 -225 3z m423 -427 c74 -39
203 -105 285 -148 83 -43 183 -95 224 -117 40 -22 81 -43 90 -47 54 -27 102
-52 141 -74 l45 -25 1 -380 2 -381 -97 50 c-54 27 -102 49 -108 49 -6 0 -39
-16 -72 -34 -34 -19 -61 -33 -61 -31 0 3 -15 -4 -32 -15 -18 -10 -87 -47 -153
-81 -66 -34 -142 -74 -170 -89 -27 -15 -126 -67 -220 -115 -93 -48 -171 -89
-173 -90 -3 -2 54 -33 218 -117 36 -18 67 -35 70 -38 3 -3 58 -32 122 -64 101
-51 115 -61 100 -71 -9 -7 -111 -61 -227 -120 -115 -60 -230 -119 -254 -132
l-44 -23 -91 46 c-50 26 -113 59 -141 74 -27 15 -126 67 -220 115 -93 48 -206
106 -250 129 -44 22 -83 45 -87 51 -4 5 -8 6 -8 1 0 -5 -6 -4 -12 1 -7 6 -71
41 -143 78 -71 37 -135 71 -140 75 -7 6 -10 198 -9 557 1 301 2 551 3 554 0 4
31 22 69 41 37 19 137 70 222 115 270 141 430 223 610 316 96 49 179 93 184
97 4 5 49 -13 100 -40 50 -26 152 -79 226 -117z"/>
<path d="M5781 8152 c-48 -16 -149 -109 -176 -163 -14 -26 -16 -75 -16 -334 0
-351 -1 -343 89 -433 82 -82 108 -89 312 -87 193 3 210 8 289 87 91 90 91 89
91 423 0 163 -4 306 -10 326 -12 44 -117 154 -168 177 -51 22 -348 25 -411 4z
m357 -217 l27 -34 -1 -248 c0 -173 -4 -255 -12 -270 -22 -40 -50 -48 -179 -49
l-122 -1 -28 29 -28 29 0 257 -1 256 28 32 28 31 130 1 130 0 28 -33z"/>
<path d="M7205 8162 c-11 -2 -22 -8 -25 -12 -3 -5 -5 -232 -5 -507 l0 -498
103 -1 102 -2 1 32 c0 17 0 104 1 194 l0 162 161 1 c94 0 177 5 199 12 48 16
134 96 157 148 15 33 18 63 17 162 -3 136 -9 155 -74 223 -57 60 -94 75 -192
80 -47 2 -91 6 -97 9 -7 2 -13 1 -13 -3 0 -7 -281 -7 -303 0 -7 3 -21 2 -32 0z
m481 -217 c22 -14 24 -22 24 -97 0 -119 1 -118 -181 -118 l-147 0 1 113 2 112
55 5 c100 9 221 2 246 -15z"/>
<path d="M9098 8165 c-3 -4 -100 -7 -214 -8 l-209 -2 4 -25 c2 -14 4 -241 5
-505 l1 -480 328 -1 c230 -1 327 2 328 10 1 6 2 50 3 99 1 87 1 87 -24 88 -14
0 -116 0 -227 0 -155 -1 -203 2 -204 12 -1 12 0 156 1 187 0 13 31 15 220 14
l220 -1 0 99 c0 71 -3 98 -12 99 -7 1 -107 2 -222 2 l-209 2 -1 102 -1 103
120 0 c66 0 168 0 227 0 124 0 116 -7 114 115 l-1 80 -115 0 c-63 0 -118 3
-121 8 -3 4 -8 5 -11 2z"/>
<path d="M11998 8163 c-9 -2 -19 -12 -23 -21 -10 -25 -144 -410 -159 -457 -15
-46 -104 -302 -146 -420 -48 -135 -55 -120 65 -122 70 -1 107 3 112 10 5 7 22
50 39 97 l31 85 175 1 175 2 12 -32 c7 -17 22 -60 35 -96 l22 -65 107 -1 c97
-1 107 1 107 17 0 10 -4 20 -9 23 -5 3 -11 18 -14 33 -2 16 -41 134 -87 263
-45 129 -84 244 -87 255 -2 11 -9 29 -13 40 -5 11 -34 93 -64 182 -30 89 -59
170 -65 181 -9 17 -22 20 -96 20 -47 0 -88 2 -92 5 -5 2 -15 2 -25 0z m157
-480 c25 -72 45 -135 45 -140 0 -6 -205 -10 -217 -4 -2 1 80 241 99 291 12 31
10 36 73 -147z"/>
<path d="M13406 8163 c-3 -3 -26 -5 -50 -5 -25 1 -47 -2 -51 -8 -4 -7 -8 -593
-5 -971 l0 -36 103 0 103 0 0 508 0 508 -37 -1 c-20 0 -41 2 -47 6 -5 3 -12 3
-16 -1z"/>
<path d="M14580 8163 c0 -4 -56 -7 -125 -6 -91 1 -125 -1 -126 -10 -3 -89 0
-988 5 -995 3 -5 48 -9 100 -10 89 0 94 1 98 21 2 12 3 100 3 195 l-1 172 80
0 81 0 94 -182 c52 -101 98 -188 103 -194 8 -11 228 -16 228 -6 0 2 -19 39
-42 81 -23 42 -53 99 -68 127 -15 28 -45 82 -66 119 l-38 68 25 16 c44 28 99
88 118 127 16 32 19 61 19 159 0 139 -9 167 -78 234 -58 57 -91 72 -163 77
-33 3 -63 5 -66 6 -3 0 -10 -1 -16 -2 -22 -4 -147 0 -156 5 -5 4 -9 3 -9 -2z
m265 -223 c27 -30 27 -157 1 -187 -19 -22 -27 -23 -166 -23 l-147 0 1 115 0
114 60 3 c34 2 100 2 148 0 69 -3 89 -7 103 -22z"/>
<path d="M10155 7652 l0 -507 103 -1 c97 -1 102 0 103 20 0 11 1 144 1 294 0
231 2 270 14 255 7 -10 14 -21 14 -26 0 -4 11 -24 23 -45 13 -20 48 -82 77
-137 44 -83 156 -288 189 -345 6 -12 30 -15 112 -15 l104 0 0 505 0 505 -102
2 -103 3 -2 -300 -3 -300 -43 82 c-24 46 -74 142 -112 213 -39 72 -90 169
-115 216 l-45 86 -108 1 -107 1 0 -507z"/>
</g>
</svg>
